<?xml version="1.0" encoding="UTF-8"?>
<svg version="1.1" xmlns="http://www.w3.org/2000/svg" width="128" height="128">
<path d="M0 0 C42.24 0 84.48 0 128 0 C128 42.24 128 84.48 128 128 C85.76 128 43.52 128 0 128 C0 85.76 0 43.52 0 0 Z " fill="#375CA7" transform="translate(0,0)"/>
<path d="M0 0 C24 0 24 0 28.6875 3.8125 C29.83732043 5.84990111 30.933862 7.91758792 32 10 C34.01373144 13.08984864 36.1410243 16.09965845 38.25 19.125 C39.37068575 20.77804004 40.49047295 22.4316896 41.609375 24.0859375 C46.03719557 30.56461857 50.7580832 36.81596594 55.53710938 43.03808594 C57.73871081 45.99070095 59.85926065 49.00296491 62 52 C62.33 34.84 62.66 17.68 63 0 C70.59 0 78.18 0 86 0 C86 31.68 86 63.36 86 96 C63 96 63 96 58.25 91.5625 C57.11814708 89.39970636 56.03855588 87.20911047 55 85 C53.88402157 83.17182725 52.7052572 81.39595082 51.51586914 79.61474609 C50.12690838 77.53424064 48.77636591 75.43232286 47.4296875 73.32421875 C42.93924756 66.33029606 38.37077622 59.38730169 33.8125 52.4375 C30.904375 48.003125 27.99625 43.56875 25 39 C24.67 57.81 24.34 76.62 24 96 C16.08 96 8.16 96 0 96 C0 64.32 0 32.64 0 0 Z " fill="#FEFEFE" transform="translate(21,19)"/>
</svg>


